PathFileType	4	(X/Y/Z)	C:/Users/opensim2020/Desktop/walking_exp_matlab/subject03_walking09_straight_04.trc																																																																																																																																											
DataRate	CameraRate	NumFrames	NumMarkers	Units	OrigDataRate	OrigDataStartFrame	OrigNumFrames																																																																																																																																							
100	100	5	47	mm	100	4053	353																																																																																																																																							
Frame#	Time	LFHD			RFHD			LBHD			RBHD			C7			T10			CLAV			STRN			RBAK			LSHO			LUPA			LELB			LFRM			LWRA			LWRB			LFIN			RSHO			RUPA			RELB			RFRM			RWRA			RWRB			RFIN			LASI			RASI			LPSI			RPSI			LTHI			LKNE			LTIB			LANK			LHEE			LTOE			RTHI			RKNE			RTIB			RANK			RHEE			RTOE			*39			*40			*41			*42			*43			*44			*45			*46		
		X1	Y1	Z1	X2	Y2	Z2	X3	Y3	Z3	X4	Y4	Z4	X5	Y5	Z5	X6	Y6	Z6	X7	Y7	Z7	X8	Y8	Z8	X9	Y9	Z9	X10	Y10	Z10	X11	Y11	Z11	X12	Y12	Z12	X13	Y13	Z13	X14	Y14	Z14	X15	Y15	Z15	X16	Y16	Z16	X17	Y17	Z17	X18	Y18	Z18	X19	Y19	Z19	X20	Y20	Z20	X21	Y21	Z21	X22	Y22	Z22	X23	Y23	Z23	X24	Y24	Z24	X25	Y25	Z25	X26	Y26	Z26	X27	Y27	Z27	X28	Y28	Z28	X29	Y29	Z29	X30	Y30	Z30	X31	Y31	Z31	X32	Y32	Z32	X33	Y33	Z33	X34	Y34	Z34	X35	Y35	Z35	X36	Y36	Z36	X37	Y37	Z37	X38	Y38	Z38	X39	Y39	Z39	X40	Y40	Z40	X41	Y41	Z41	X42	Y42	Z42	X43	Y43	Z43	X44	Y44	Z44	X45	Y45	Z45	X46	Y46	Z46	X47	Y47	Z47
																																																																																																																																														
309	3.08	895.62555	1620.1908	-1519.37671	863.15131	1623.0979	-1390.30273	769.33746	1578.69617	-1546.26465	742.21277	1581.2356	-1418.53601	722.2691	1419.2489	-1491.5033	685.3963	1105.21814	-1491.7085	840.8739	1340.22876	-1473.22168	881.94666	1174.93896	-1475.38025	652.92993	1243.58923	-1404.36182	820.17578	1379.17358	-1631.50073	861.4176	1192.98438	-1705.69421	905.59235	1078.57458	-1714.84583	977.72955	971.7157	-1699.85461	1031.99243	871.04724	-1656.28625	1022.42267	867.36127	-1710.8999	1069.58057	800.50159	-1692.35095	774.28333	1362.58777	-1321.13196	769.48511	1139.01611	-1250.98584	789.59943	1028.51917	-1236.66089	816.1507	894.19781	-1233.82739	858.18555	802.19519	-1266.18445	821.76678	794.40967	-1226.85901	850.96082	726.34418	-1232.09583	860.89386	943.56769	-1598.05652	847.69763	940.93976	-1358.83179	696.25476	965.39166	-1555.5918	688.25183	964.91522	-1406.901	791.86328	641.70428	-1628.05249	774.82654	465.48621	-1584.89014	704.15527	281.58139	-1585.33826	656.6618	77.26219	-1541.49268	612.1001	45.67055	-1507.2948	806.11267	35.06928	-1509.60706	858.69135	648.93372	-1312.06079	938.20374	486.73209	-1344.09045	907.10541	299.12692	-1342.71497	892.81952	83.78759	-1389.00098	852.6496	49.90736	-1444.26147	1029.328	48.03517	-1397.59326	804.78052	1682.08264	-1489.44446	NaN	NaN	NaN	NaN	NaN	NaN	NaN	NaN	NaN	NaN	NaN	NaN	NaN	NaN	NaN	NaN	NaN	NaN	NaN	NaN	NaN
310	3.09	902.28528	1619.5636	-1518.65295	869.43195	1622.35571	-1389.60498	776.22211	1577.91553	-1545.69336	748.66174	1580.42297	-1418.17285	728.81049	1418.5271	-1491.29932	691.40533	1104.87891	-1491.35022	847.5022	1339.36316	-1472.93396	888.4259	1174.07568	-1475.31323	659.62085	1242.88684	-1403.93628	826.85693	1378.54333	-1631.13806	868.77216	1192.72742	-1705.43347	913.43463	1078.56323	-1714.70154	986.7326	972.86633	-1699.10022	1042.30994	873.13928	-1654.72693	1032.89917	868.93225	-1709.32959	1081.03564	802.99921	-1690.23291	780.96881	1361.76965	-1320.87219	775.36737	1138.12598	-1250.88232	795.07916	1027.53711	-1236.50757	821.16785	893.17828	-1233.60229	862.68524	800.98724	-1265.86572	826.15338	793.22858	-1226.5885	855.02539	725.13861	-1231.62524	866.88367	942.99762	-1598.20837	854.24725	939.91699	-1358.77576	702.28003	964.82153	-1555.23157	694.84711	964.02179	-1406.47644	796.25037	641.38324	-1628.04028	777.92017	465.28491	-1585.0708	705.70483	281.82718	-1585.39648	656.74445	77.7161	-1541.34888	612.18726	46.30818	-1507.02148	806.12689	35.00689	-1509.64319	864.30328	647.53546	-1312.31836	944.43829	485.66635	-1345.49939	919.59027	297.69855	-1343.90979	914.83862	81.62388	-1389.70691	875.81836	47.05681	-1445.1853	1052.60291	49.0786	-1398.52698	811.32806	1681.31274	-1488.84766	NaN	NaN	NaN	NaN	NaN	NaN	NaN	NaN	NaN	NaN	NaN	NaN	NaN	NaN	NaN	NaN	NaN	NaN	NaN	NaN	NaN
311	3.1	908.94049	1618.93713	-1517.93958	875.96509	1621.5144	-1388.91797	782.87842	1577.19641	-1545.32898	755.52222	1579.28943	-1417.66248	735.58221	1417.77185	-1490.8009	698.21985	1103.86401	-1490.56677	854.20593	1338.62671	-1472.67334	894.8667	1173.17407	-1475.21143	666.14209	1242.2804	-1403.76123	833.5293	1377.84851	-1630.76099	876.09149	1192.42371	-1705.30676	920.99023	1078.41589	-1714.48059	995.44171	973.69916	-1698.27539	1052.21558	874.99054	-1653.12866	1042.95605	870.27234	-1707.75244	1092.03625	805.19708	-1688.11914	787.52649	1361.02429	-1320.59033	781.32635	1137.13965	-1250.73071	800.61627	1026.5448	-1236.35901	826.09515	892.05957	-1233.38953	867.40625	799.7616	-1265.38403	830.35876	792.19958	-1226.37769	859.13641	723.89758	-1231.23254	872.86066	942.39941	-1598.27283	860.93414	938.88293	-1358.67249	708.41449	964.28058	-1554.84644	701.5307	963.11072	-1406.05994	800.61298	641.08069	-1628.52368	781.14734	465.04916	-1585.30713	707.34967	282.082	-1585.47107	657.3504	77.68605	-1541.14038	612.16351	47.11996	-1506.91699	806.12292	34.96471	-1509.69604	869.6499	646.09833	-1312.42151	950.33221	484.59183	-1346.85754	931.52277	296.47537	-1344.99695	935.96802	80.10288	-1390.61731	898.21228	45.07047	-1446.31946	1074.88184	50.03028	-1399.37646	817.85101	1680.47327	-1488.22083	NaN	NaN	NaN	NaN	NaN	NaN	NaN	NaN	NaN	NaN	NaN	NaN	NaN	NaN	NaN	NaN	NaN	NaN	NaN	NaN	NaN
312	3.11	915.69153	1618.29199	-1517.19751	882.44122	1620.7312	-1388.23059	789.65405	1576.44507	-1544.81055	761.98792	1578.45862	-1417.18579	742.28522	1417.08972	-1490.63232	704.63202	1103.26624	-1490.06628	860.87445	1337.70654	-1472.29858	901.44012	1172.3302	-1475.0603	672.85699	1241.65039	-1403.41785	840.26556	1377.11011	-1630.37	883.15088	1191.89966	-1704.95618	928.32269	1078.07397	-1714.16687	1003.93402	974.22284	-1697.38159	1061.89563	876.68091	-1651.58545	1052.66821	871.4668	-1706.12122	1102.62439	807.23956	-1686.026	794.57434	1360.07471	-1320.18066	787.79272	1136.27869	-1250.65149	806.44	1025.54712	-1236.26526	831.1651	890.92444	-1233.19495	872.12408	798.45349	-1265.11255	834.76129	791.03656	-1226.18811	863.27863	722.58582	-1230.91602	878.9563	941.73822	-1598.32324	867.81567	937.88306	-1358.57825	714.72498	963.71307	-1554.36401	708.21521	962.25305	-1405.54114	805.0451	640.81757	-1627.91943	784.54919	464.81979	-1585.63342	709.24591	282.36945	-1585.61243	657.54425	78.71645	-1540.92188	612.32568	48.02054	-1506.92456	806.18073	34.95395	-1509.71899	875.2262	644.63928	-1312.43494	955.99451	483.31903	-1348.21631	942.93774	295.2536	-1346.32446	956.20905	78.94993	-1391.33936	919.71484	43.93879	-1447.63684	1096.21277	51.01124	-1400.16956	824.34448	1679.37866	-1487.33362	NaN	NaN	NaN	NaN	NaN	NaN	NaN	NaN	NaN	NaN	NaN	NaN	NaN	NaN	NaN	NaN	NaN	NaN	NaN	NaN	NaN
313	3.12	922.3916	1617.6167	-1516.46423	888.95435	1619.93823	-1387.5625	796.46069	1575.67554	-1544.27649	768.47351	1577.67261	-1416.83984	749.16437	1416.43164	-1490.00891	710.80701	1102.8855	-1489.65259	867.63031	1336.88794	-1471.89551	908.08203	1171.47839	-1474.85437	679.59637	1240.93884	-1402.96741	846.95233	1376.32605	-1629.98962	890.03351	1191.24976	-1704.59631	935.5459	1077.62195	-1713.83362	1012.05963	974.76697	-1696.60913	1071.21912	878.26959	-1650.10608	1061.98267	872.42548	-1704.5332	1112.75403	808.99927	-1683.99023	801.22565	1359.28894	-1319.80798	794.31903	1135.30981	-1250.46826	812.31555	1024.46704	-1236.23682	836.35468	889.75708	-1233.06079	876.74921	797.06329	-1264.90967	839.33838	789.79388	-1226.07825	867.44543	721.21893	-1230.72107	885.17633	941.05249	-1598.32312	875.3728	937.26733	-1358.66968	721.04987	963.14435	-1553.94263	715.03278	961.40063	-1405.10083	809.60822	640.466	-1628.35107	788.09503	464.51682	-1585.9325	711.18738	282.63028	-1585.78809	657.73615	79.518	-1541.44421	612.50647	48.75196	-1506.86255	806.21857	34.86227	-1509.77307	880.77887	643.17542	-1312.46997	961.32983	481.95465	-1349.43701	953.80273	294.13168	-1347.52808	975.35962	78.44145	-1392.54749	940.3045	43.30832	-1449.16443	1116.46106	52.13501	-1400.81494	830.97711	1678.6106	-1486.65771	NaN	NaN	NaN	NaN	NaN	NaN	NaN	NaN	NaN	NaN	NaN	NaN	NaN	NaN	NaN	NaN	NaN	NaN	NaN	NaN	NaN
